<svg width="485" height="53" viewBox="0 0 485 53" fill="none" xmlns="http://www.w3.org/2000/svg">
<path d="M31.792 21.28C30.9813 19.7867 29.808 18.656 28.272 17.888C26.7787 17.0773 25.008 16.672 22.96 16.672C19.4187 16.672 16.5813 17.8453 14.448 20.192C12.3147 22.496 11.248 25.5893 11.248 29.472C11.248 33.6107 12.3573 36.8533 14.576 39.2C16.8373 41.504 19.9307 42.656 23.856 42.656C26.544 42.656 28.8053 41.9733 30.64 40.608C32.5173 39.2427 33.8827 37.28 34.736 34.72H20.848V26.656H44.656V36.832C43.8453 39.5627 42.4587 42.1013 40.496 44.448C38.576 46.7947 36.1227 48.6933 33.136 50.144C30.1493 51.5947 26.7787 52.32 23.024 52.32C18.5867 52.32 14.6187 51.36 11.12 49.44C7.664 47.4773 4.95467 44.768 2.992 41.312C1.072 37.856 0.112 33.9093 0.112 29.472C0.112 25.0347 1.072 21.088 2.992 17.632C4.95467 14.1333 7.664 11.424 11.12 9.504C14.576 7.54133 18.5227 6.56 22.96 6.56C28.336 6.56 32.8587 7.86133 36.528 10.464C40.24 13.0667 42.6933 16.672 43.888 21.28H31.792ZM56.222 12.576C54.302 12.576 52.7233 12.0213 51.486 10.912C50.2913 9.76 49.694 8.352 49.694 6.688C49.694 4.98133 50.2913 3.57333 51.486 2.464C52.7233 1.312 54.302 0.735996 56.222 0.735996C58.0993 0.735996 59.6353 1.312 60.83 2.464C62.0673 3.57333 62.686 4.98133 62.686 6.688C62.686 8.352 62.0673 9.76 60.83 10.912C59.6353 12.0213 58.0993 12.576 56.222 12.576ZM61.662 16.288V52H50.718V16.288H61.662ZM67.417 34.08C67.417 30.4107 68.0997 27.1893 69.465 24.416C70.873 21.6427 72.7717 19.5093 75.161 18.016C77.5503 16.5227 80.217 15.776 83.161 15.776C85.6783 15.776 87.8757 16.288 89.753 17.312C91.673 18.336 93.145 19.68 94.169 21.344V16.288H105.113V52H94.169V46.944C93.1023 48.608 91.609 49.952 89.689 50.976C87.8117 52 85.6143 52.512 83.097 52.512C80.1957 52.512 77.5503 51.7653 75.161 50.272C72.7717 48.736 70.873 46.5813 69.465 43.808C68.0997 40.992 67.417 37.7493 67.417 34.08ZM94.169 34.144C94.169 31.4133 93.401 29.2587 91.865 27.68C90.3717 26.1013 88.537 25.312 86.361 25.312C84.185 25.312 82.329 26.1013 80.793 27.68C79.2997 29.216 78.553 31.3493 78.553 34.08C78.553 36.8107 79.2997 38.9867 80.793 40.608C82.329 42.1867 84.185 42.976 86.361 42.976C88.537 42.976 90.3717 42.1867 91.865 40.608C93.401 39.0293 94.169 36.8747 94.169 34.144ZM134.791 15.904C138.972 15.904 142.3 17.2693 144.775 20C147.292 22.688 148.551 26.4 148.551 31.136V52H137.671V32.608C137.671 30.2187 137.052 28.3627 135.815 27.04C134.577 25.7173 132.913 25.056 130.823 25.056C128.732 25.056 127.068 25.7173 125.831 27.04C124.593 28.3627 123.975 30.2187 123.975 32.608V52H113.031V16.288H123.975V21.024C125.084 19.4453 126.577 18.208 128.455 17.312C130.332 16.3733 132.444 15.904 134.791 15.904ZM177.916 15.904C182.097 15.904 185.425 17.2693 187.9 20C190.417 22.688 191.676 26.4 191.676 31.136V52H180.796V32.608C180.796 30.2187 180.177 28.3627 178.94 27.04C177.702 25.7173 176.038 25.056 173.948 25.056C171.857 25.056 170.193 25.7173 168.956 27.04C167.718 28.3627 167.1 30.2187 167.1 32.608V52H156.156V16.288H167.1V21.024C168.209 19.4453 169.702 18.208 171.58 17.312C173.457 16.3733 175.569 15.904 177.916 15.904ZM204.785 12.576C202.865 12.576 201.286 12.0213 200.049 10.912C198.854 9.76 198.257 8.352 198.257 6.688C198.257 4.98133 198.854 3.57333 200.049 2.464C201.286 1.312 202.865 0.735996 204.785 0.735996C206.662 0.735996 208.198 1.312 209.393 2.464C210.63 3.57333 211.249 4.98133 211.249 6.688C211.249 8.352 210.63 9.76 209.393 10.912C208.198 12.0213 206.662 12.576 204.785 12.576ZM210.225 16.288V52H199.281V16.288H210.225Z" fill="#2d2e32"/>
<path d="M259.666 52L249.042 33.76H242.002V52H236.178V7.392H250.578C253.949 7.392 256.786 7.968 259.09 9.12C261.437 10.272 263.186 11.8293 264.338 13.792C265.49 15.7547 266.066 17.9947 266.066 20.512C266.066 23.584 265.17 26.2933 263.378 28.64C261.629 30.9867 258.983 32.544 255.442 33.312L266.642 52H259.666ZM242.002 29.088H250.578C253.735 29.088 256.103 28.32 257.682 26.784C259.261 25.2053 260.05 23.1147 260.05 20.512C260.05 17.8667 259.261 15.8187 257.682 14.368C256.146 12.9173 253.778 12.192 250.578 12.192H242.002V29.088ZM290.412 52.576C287.126 52.576 284.14 51.8293 281.452 50.336C278.806 48.8427 276.716 46.7307 275.18 44C273.686 41.2267 272.94 38.0267 272.94 34.4C272.94 30.816 273.708 27.6587 275.244 24.928C276.822 22.1547 278.956 20.0427 281.644 18.592C284.332 17.0987 287.34 16.352 290.668 16.352C293.996 16.352 297.004 17.0987 299.692 18.592C302.38 20.0427 304.492 22.1333 306.028 24.864C307.606 27.5947 308.396 30.7733 308.396 34.4C308.396 38.0267 307.585 41.2267 305.964 44C304.385 46.7307 302.23 48.8427 299.5 50.336C296.769 51.8293 293.74 52.576 290.412 52.576ZM290.412 47.456C292.502 47.456 294.465 46.9653 296.3 45.984C298.134 45.0027 299.606 43.5307 300.716 41.568C301.868 39.6053 302.444 37.216 302.444 34.4C302.444 31.584 301.889 29.1947 300.78 27.232C299.67 25.2693 298.22 23.8187 296.428 22.88C294.636 21.8987 292.694 21.408 290.604 21.408C288.47 21.408 286.508 21.8987 284.716 22.88C282.966 23.8187 281.558 25.2693 280.492 27.232C279.425 29.1947 278.892 31.584 278.892 34.4C278.892 37.2587 279.404 39.6693 280.428 41.632C281.494 43.5947 282.902 45.0667 284.652 46.048C286.401 46.9867 288.321 47.456 290.412 47.456ZM328.469 52.576C325.781 52.576 323.37 52.128 321.237 51.232C319.104 50.2933 317.418 49.0133 316.181 47.392C314.944 45.728 314.261 43.8293 314.133 41.696H320.149C320.32 43.4453 321.13 44.8747 322.581 45.984C324.074 47.0933 326.016 47.648 328.405 47.648C330.624 47.648 332.373 47.1573 333.653 46.176C334.933 45.1947 335.573 43.9573 335.573 42.464C335.573 40.928 334.89 39.7973 333.525 39.072C332.16 38.304 330.048 37.5573 327.189 36.832C324.586 36.1493 322.453 35.4667 320.789 34.784C319.168 34.0587 317.76 33.0133 316.565 31.648C315.413 30.24 314.837 28.4053 314.837 26.144C314.837 24.352 315.37 22.7093 316.437 21.216C317.504 19.7227 319.018 18.5493 320.981 17.696C322.944 16.8 325.184 16.352 327.701 16.352C331.584 16.352 334.72 17.3333 337.109 19.296C339.498 21.2587 340.778 23.9467 340.949 27.36H335.125C334.997 25.5253 334.25 24.0533 332.885 22.944C331.562 21.8347 329.77 21.28 327.509 21.28C325.418 21.28 323.754 21.728 322.517 22.624C321.28 23.52 320.661 24.6933 320.661 26.144C320.661 27.296 321.024 28.256 321.749 29.024C322.517 29.7493 323.456 30.3467 324.565 30.816C325.717 31.2427 327.296 31.7333 329.301 32.288C331.818 32.9707 333.866 33.6533 335.445 34.336C337.024 34.976 338.368 35.9573 339.477 37.28C340.629 38.6027 341.226 40.3307 341.269 42.464C341.269 44.384 340.736 46.112 339.669 47.648C338.602 49.184 337.088 50.4 335.125 51.296C333.205 52.1493 330.986 52.576 328.469 52.576ZM352.499 11.232C351.389 11.232 350.451 10.848 349.683 10.08C348.915 9.312 348.531 8.37333 348.531 7.264C348.531 6.15466 348.915 5.216 349.683 4.448C350.451 3.68 351.389 3.296 352.499 3.296C353.565 3.296 354.461 3.68 355.187 4.448C355.955 5.216 356.339 6.15466 356.339 7.264C356.339 8.37333 355.955 9.312 355.187 10.08C354.461 10.848 353.565 11.232 352.499 11.232ZM355.315 16.928V52H349.491V16.928H355.315ZM382.329 16.288C386.595 16.288 390.051 17.5893 392.697 20.192C395.342 22.752 396.665 26.464 396.665 31.328V52H390.905V32.16C390.905 28.6613 390.03 25.9947 388.281 24.16C386.531 22.2827 384.142 21.344 381.113 21.344C378.041 21.344 375.587 22.304 373.753 24.224C371.961 26.144 371.065 28.9387 371.065 32.608V52H365.241V16.928H371.065V21.92C372.217 20.128 373.774 18.7413 375.737 17.76C377.742 16.7787 379.939 16.288 382.329 16.288ZM438.178 33.12C438.178 34.2293 438.114 35.4027 437.986 36.64H409.954C410.167 40.096 411.341 42.8053 413.474 44.768C415.65 46.688 418.274 47.648 421.346 47.648C423.863 47.648 425.954 47.072 427.618 45.92C429.325 44.7253 430.519 43.1467 431.202 41.184H437.474C436.535 44.5547 434.658 47.3067 431.842 49.44C429.026 51.5307 425.527 52.576 421.346 52.576C418.018 52.576 415.031 51.8293 412.386 50.336C409.783 48.8427 407.735 46.7307 406.242 44C404.749 41.2267 404.002 38.0267 404.002 34.4C404.002 30.7733 404.727 27.5947 406.178 24.864C407.629 22.1333 409.655 20.0427 412.258 18.592C414.903 17.0987 417.933 16.352 421.346 16.352C424.674 16.352 427.618 17.0773 430.178 18.528C432.738 19.9787 434.701 21.984 436.066 24.544C437.474 27.0613 438.178 29.92 438.178 33.12ZM432.162 31.904C432.162 29.6853 431.671 27.7867 430.69 26.208C429.709 24.5867 428.365 23.3707 426.658 22.56C424.994 21.7067 423.138 21.28 421.09 21.28C418.146 21.28 415.629 22.2187 413.538 24.096C411.49 25.9733 410.317 28.576 410.018 31.904H432.162ZM451.69 4.64V52H445.866V4.64H451.69ZM467.44 4.64V52H461.616V4.64H467.44ZM480.374 11.232C479.264 11.232 478.326 10.848 477.558 10.08C476.79 9.312 476.406 8.37333 476.406 7.264C476.406 6.15466 476.79 5.216 477.558 4.448C478.326 3.68 479.264 3.296 480.374 3.296C481.44 3.296 482.336 3.68 483.062 4.448C483.83 5.216 484.214 6.15466 484.214 7.264C484.214 8.37333 483.83 9.312 483.062 10.08C482.336 10.848 481.44 11.232 480.374 11.232ZM483.19 16.928V52H477.366V16.928H483.19Z" fill="#2d2e27"/>
</svg>
